<svg width="221" height="223" viewBox="0 0 221 223" fill="none" xmlns="http://www.w3.org/2000/svg">
<path d="M220.5 111.5C220.5 172.808 171.247 222.5 110.5 222.5C49.7529 222.5 0.5 172.808 0.5 111.5C0.5 50.1921 49.7529 0.5 110.5 0.5C171.247 0.5 220.5 50.1921 220.5 111.5Z" stroke="black"/>
<path d="M72 97H80.5556V90H72V97ZM72 111H80.5556V104H72V111ZM72 83H80.5556V76H72V83ZM89.1111 97H149V90H89.1111V97ZM89.1111 111H149V104H89.1111V111ZM89.1111 76V83H149V76H89.1111Z" fill="black"/>
<path d="M93.426 134.528C95.202 134.528 96.602 134.888 97.626 135.608C98.666 136.328 99.186 137.432 99.186 138.92C99.186 139.912 98.954 140.76 98.49 141.464C98.026 142.152 97.386 142.688 96.57 143.072C95.77 143.44 94.826 143.64 93.738 143.672L93.306 142.184C94.602 142.2 95.754 142.408 96.762 142.808C97.77 143.192 98.562 143.744 99.138 144.464C99.73 145.168 100.026 146.008 100.026 146.984C100.026 147.896 99.858 148.672 99.522 149.312C99.202 149.936 98.762 150.448 98.202 150.848C97.642 151.248 97.01 151.544 96.306 151.736C95.602 151.912 94.866 152 94.098 152H88.65V134.528H93.426ZM93.858 141.968C94.706 141.968 95.322 141.728 95.706 141.248C96.106 140.752 96.306 140.176 96.306 139.52C96.306 138.72 96.058 138.136 95.562 137.768C95.066 137.4 94.394 137.216 93.546 137.216H91.458V141.968H93.858ZM93.978 149.408C94.57 149.408 95.106 149.328 95.586 149.168C96.066 148.992 96.45 148.728 96.738 148.376C97.026 148.008 97.17 147.552 97.17 147.008C97.17 146.4 97.002 145.928 96.666 145.592C96.33 145.256 95.906 145.016 95.394 144.872C94.882 144.728 94.346 144.656 93.786 144.656H91.458V149.408H93.978ZM103.215 133.28H105.903V152H103.215V133.28ZM108.75 146.816C108.75 145.792 108.99 144.872 109.47 144.056C109.966 143.224 110.646 142.576 111.51 142.112C112.374 141.632 113.358 141.392 114.462 141.392C115.598 141.392 116.582 141.632 117.414 142.112C118.262 142.576 118.91 143.224 119.358 144.056C119.822 144.872 120.054 145.792 120.054 146.816C120.054 147.84 119.822 148.768 119.358 149.6C118.91 150.416 118.262 151.064 117.414 151.544C116.566 152.024 115.574 152.264 114.438 152.264C113.334 152.264 112.35 152.048 111.486 151.616C110.638 151.168 109.966 150.536 109.47 149.72C108.99 148.904 108.75 147.936 108.75 146.816ZM111.462 146.84C111.462 147.432 111.59 147.976 111.846 148.472C112.102 148.952 112.454 149.336 112.902 149.624C113.35 149.912 113.846 150.056 114.39 150.056C114.982 150.056 115.494 149.912 115.926 149.624C116.374 149.336 116.718 148.952 116.958 148.472C117.214 147.976 117.342 147.432 117.342 146.84C117.342 146.232 117.214 145.688 116.958 145.208C116.718 144.712 116.374 144.32 115.926 144.032C115.494 143.744 114.982 143.6 114.39 143.6C113.83 143.6 113.326 143.752 112.878 144.056C112.446 144.344 112.102 144.728 111.846 145.208C111.59 145.688 111.462 146.232 111.462 146.84ZM127.943 157.064C127.127 157.064 126.423 156.968 125.831 156.776C125.239 156.584 124.711 156.328 124.247 156.008C123.799 155.704 123.375 155.384 122.975 155.048L124.559 153.2C125.023 153.632 125.511 153.992 126.023 154.28C126.551 154.568 127.175 154.712 127.895 154.712C128.567 154.712 129.143 154.6 129.623 154.376C130.119 154.168 130.503 153.856 130.775 153.44C131.063 153.04 131.207 152.56 131.207 152V149.48L131.375 149.984C131.103 150.608 130.607 151.144 129.887 151.592C129.167 152.04 128.271 152.264 127.199 152.264C126.271 152.264 125.415 152.032 124.631 151.568C123.847 151.088 123.223 150.44 122.759 149.624C122.295 148.808 122.063 147.888 122.063 146.864C122.063 145.808 122.311 144.872 122.807 144.056C123.303 143.224 123.951 142.576 124.751 142.112C125.551 141.632 126.407 141.392 127.319 141.392C128.215 141.392 129.007 141.552 129.695 141.872C130.399 142.192 130.927 142.592 131.279 143.072L131.135 143.456L131.423 141.848H133.895V152.048C133.895 152.992 133.639 153.84 133.127 154.592C132.631 155.36 131.935 155.96 131.039 156.392C130.159 156.84 129.127 157.064 127.943 157.064ZM124.775 146.792C124.775 147.4 124.911 147.952 125.183 148.448C125.471 148.944 125.855 149.336 126.335 149.624C126.831 149.912 127.383 150.056 127.991 150.056C128.519 150.056 128.999 149.968 129.431 149.792C129.863 149.616 130.231 149.368 130.535 149.048C130.839 148.728 131.063 148.352 131.207 147.92V145.712C131.063 145.28 130.831 144.912 130.511 144.608C130.207 144.288 129.839 144.04 129.407 143.864C128.975 143.688 128.503 143.6 127.991 143.6C127.383 143.6 126.831 143.736 126.335 144.008C125.855 144.28 125.471 144.656 125.183 145.136C124.911 145.616 124.775 146.168 124.775 146.792Z" fill="black"/>
</svg>

