<svg width="222" height="223" viewBox="0 0 222 223" fill="none" xmlns="http://www.w3.org/2000/svg">
<path d="M68.985 155.632C68.729 155.808 68.345 156.024 67.833 156.28C67.337 156.536 66.737 156.76 66.033 156.952C65.345 157.128 64.577 157.208 63.729 157.192C62.369 157.176 61.145 156.936 60.057 156.472C58.969 155.992 58.049 155.352 57.297 154.552C56.545 153.736 55.961 152.808 55.545 151.768C55.145 150.712 54.945 149.592 54.945 148.408C54.945 147.08 55.153 145.864 55.569 144.76C55.985 143.656 56.577 142.704 57.345 141.904C58.113 141.088 59.025 140.456 60.081 140.008C61.137 139.56 62.289 139.336 63.537 139.336C64.641 139.336 65.625 139.488 66.489 139.792C67.369 140.08 68.105 140.408 68.697 140.776L67.593 143.392C67.145 143.088 66.585 142.784 65.913 142.48C65.241 142.176 64.481 142.024 63.633 142.024C62.865 142.024 62.129 142.184 61.425 142.504C60.721 142.808 60.105 143.248 59.577 143.824C59.049 144.384 58.625 145.04 58.305 145.792C58.001 146.544 57.849 147.36 57.849 148.24C57.849 149.152 57.985 149.992 58.257 150.76C58.545 151.528 58.945 152.192 59.457 152.752C59.985 153.296 60.609 153.728 61.329 154.048C62.065 154.352 62.889 154.504 63.801 154.504C64.697 154.504 65.481 154.368 66.153 154.096C66.841 153.808 67.393 153.488 67.809 153.136L68.985 155.632ZM76.4085 157.264C75.4645 157.264 74.6005 157.064 73.8165 156.664C73.0485 156.264 72.4405 155.672 71.9925 154.888C71.5445 154.088 71.3205 153.104 71.3205 151.936C71.3205 150.784 71.5525 149.8 72.0165 148.984C72.4965 148.152 73.1205 147.512 73.8885 147.064C74.6725 146.616 75.5205 146.392 76.4325 146.392C77.4085 146.392 78.1925 146.592 78.7845 146.992C79.3925 147.376 79.8645 147.824 80.2005 148.336L80.0565 148.72L80.3205 146.848H82.7925V157H80.1045V154.528L80.3685 155.176C80.3205 155.272 80.1925 155.432 79.9845 155.656C79.7925 155.864 79.5285 156.096 79.1925 156.352C78.8565 156.608 78.4565 156.824 77.9925 157C77.5445 157.176 77.0165 157.264 76.4085 157.264ZM77.1525 155.056C77.6485 155.056 78.0965 154.968 78.4965 154.792C78.8965 154.616 79.2325 154.368 79.5045 154.048C79.7765 153.728 79.9765 153.344 80.1045 152.896V150.688C79.9765 150.272 79.7685 149.912 79.4805 149.608C79.1925 149.288 78.8405 149.04 78.4245 148.864C78.0245 148.688 77.5765 148.6 77.0805 148.6C76.5205 148.6 76.0085 148.736 75.5445 149.008C75.0965 149.28 74.7285 149.656 74.4405 150.136C74.1685 150.616 74.0325 151.168 74.0325 151.792C74.0325 152.4 74.1765 152.952 74.4645 153.448C74.7525 153.944 75.1365 154.336 75.6165 154.624C76.0965 154.912 76.6085 155.056 77.1525 155.056ZM88.9048 146.848L89.1208 148.912L89.0488 148.744C89.4328 148.008 89.9528 147.432 90.6088 147.016C91.2808 146.6 92.0568 146.392 92.9368 146.392C93.4968 146.392 93.9928 146.48 94.4248 146.656C94.8568 146.832 95.2168 147.08 95.5048 147.4C95.8088 147.72 96.0008 148.12 96.0808 148.6L95.9608 148.648C96.3768 147.96 96.9128 147.416 97.5688 147.016C98.2248 146.6 98.9208 146.392 99.6568 146.392C100.649 146.392 101.441 146.68 102.033 147.256C102.625 147.816 102.929 148.544 102.945 149.44V157H100.281V150.472C100.265 149.992 100.161 149.592 99.9688 149.272C99.7768 148.936 99.4168 148.752 98.8888 148.72C98.3128 148.72 97.8088 148.904 97.3768 149.272C96.9608 149.624 96.6408 150.088 96.4168 150.664C96.1928 151.224 96.0728 151.816 96.0568 152.44V157H93.3688V150.472C93.3528 149.992 93.2408 149.592 93.0328 149.272C92.8248 148.936 92.4568 148.752 91.9288 148.72C91.3688 148.72 90.8808 148.904 90.4648 149.272C90.0488 149.624 89.7288 150.088 89.5048 150.664C89.2808 151.224 89.1688 151.816 89.1688 152.44V157H86.4808V146.848H88.9048ZM112.805 157.264C112.101 157.264 111.421 157.112 110.765 156.808C110.109 156.504 109.581 156.088 109.181 155.56L109.301 154.744V161.872H106.637V146.656H108.965L109.325 149.008L109.085 148.288C109.581 147.744 110.181 147.296 110.885 146.944C111.605 146.576 112.413 146.392 113.309 146.392C114.269 146.392 115.125 146.616 115.877 147.064C116.629 147.512 117.221 148.152 117.653 148.984C118.085 149.8 118.301 150.768 118.301 151.888C118.301 153.008 118.061 153.968 117.581 154.768C117.117 155.568 116.469 156.184 115.637 156.616C114.805 157.048 113.861 157.264 112.805 157.264ZM112.277 155.128C112.869 155.128 113.413 154.992 113.909 154.72C114.421 154.448 114.829 154.072 115.133 153.592C115.437 153.096 115.589 152.544 115.589 151.936C115.589 151.296 115.445 150.736 115.157 150.256C114.885 149.76 114.509 149.376 114.029 149.104C113.565 148.816 113.045 148.672 112.469 148.672C111.941 148.672 111.469 148.76 111.053 148.936C110.637 149.112 110.285 149.368 109.997 149.704C109.709 150.024 109.485 150.408 109.325 150.856V152.896C109.437 153.328 109.629 153.72 109.901 154.072C110.173 154.408 110.517 154.672 110.933 154.864C111.349 155.04 111.797 155.128 112.277 155.128ZM125.416 157.264C124.472 157.264 123.608 157.064 122.824 156.664C122.056 156.264 121.448 155.672 121 154.888C120.552 154.088 120.328 153.104 120.328 151.936C120.328 150.784 120.56 149.8 121.024 148.984C121.504 148.152 122.128 147.512 122.896 147.064C123.68 146.616 124.528 146.392 125.44 146.392C126.416 146.392 127.2 146.592 127.792 146.992C128.4 147.376 128.872 147.824 129.208 148.336L129.064 148.72L129.328 146.848H131.8V157H129.112V154.528L129.376 155.176C129.328 155.272 129.2 155.432 128.992 155.656C128.8 155.864 128.536 156.096 128.2 156.352C127.864 156.608 127.464 156.824 127 157C126.552 157.176 126.024 157.264 125.416 157.264ZM126.16 155.056C126.656 155.056 127.104 154.968 127.504 154.792C127.904 154.616 128.24 154.368 128.512 154.048C128.784 153.728 128.984 153.344 129.112 152.896V150.688C128.984 150.272 128.776 149.912 128.488 149.608C128.2 149.288 127.848 149.04 127.432 148.864C127.032 148.688 126.584 148.6 126.088 148.6C125.528 148.6 125.016 148.736 124.552 149.008C124.104 149.28 123.736 149.656 123.448 150.136C123.176 150.616 123.04 151.168 123.04 151.792C123.04 152.4 123.184 152.952 123.472 153.448C123.76 153.944 124.144 154.336 124.624 154.624C125.104 154.912 125.616 155.056 126.16 155.056ZM135.489 146.848H138.177V157H135.489V146.848ZM135.369 143.2C135.369 142.784 135.529 142.44 135.849 142.168C136.185 141.896 136.545 141.76 136.929 141.76C137.313 141.76 137.657 141.896 137.961 142.168C138.265 142.44 138.417 142.784 138.417 143.2C138.417 143.616 138.265 143.96 137.961 144.232C137.657 144.488 137.313 144.616 136.929 144.616C136.545 144.616 136.185 144.48 135.849 144.208C135.529 143.936 135.369 143.6 135.369 143.2ZM146.904 162.064C146.088 162.064 145.384 161.968 144.792 161.776C144.2 161.584 143.672 161.328 143.208 161.008C142.76 160.704 142.336 160.384 141.936 160.048L143.52 158.2C143.984 158.632 144.472 158.992 144.984 159.28C145.512 159.568 146.136 159.712 146.856 159.712C147.528 159.712 148.104 159.6 148.584 159.376C149.08 159.168 149.464 158.856 149.736 158.44C150.024 158.04 150.168 157.56 150.168 157V154.48L150.336 154.984C150.064 155.608 149.568 156.144 148.848 156.592C148.128 157.04 147.232 157.264 146.16 157.264C145.232 157.264 144.376 157.032 143.592 156.568C142.808 156.088 142.184 155.44 141.72 154.624C141.256 153.808 141.024 152.888 141.024 151.864C141.024 150.808 141.272 149.872 141.768 149.056C142.264 148.224 142.912 147.576 143.712 147.112C144.512 146.632 145.368 146.392 146.28 146.392C147.176 146.392 147.968 146.552 148.656 146.872C149.36 147.192 149.888 147.592 150.24 148.072L150.096 148.456L150.384 146.848H152.856V157.048C152.856 157.992 152.6 158.84 152.088 159.592C151.592 160.36 150.896 160.96 150 161.392C149.12 161.84 148.088 162.064 146.904 162.064ZM143.736 151.792C143.736 152.4 143.872 152.952 144.144 153.448C144.432 153.944 144.816 154.336 145.296 154.624C145.792 154.912 146.344 155.056 146.952 155.056C147.48 155.056 147.96 154.968 148.392 154.792C148.824 154.616 149.192 154.368 149.496 154.048C149.8 153.728 150.024 153.352 150.168 152.92V150.712C150.024 150.28 149.792 149.912 149.472 149.608C149.168 149.288 148.8 149.04 148.368 148.864C147.936 148.688 147.464 148.6 146.952 148.6C146.344 148.6 145.792 148.736 145.296 149.008C144.816 149.28 144.432 149.656 144.144 150.136C143.872 150.616 143.736 151.168 143.736 151.792ZM158.983 146.848L159.199 149.032L159.127 148.744C159.463 148.04 159.983 147.48 160.687 147.064C161.391 146.632 162.223 146.416 163.183 146.416C164.143 146.416 164.935 146.696 165.559 147.256C166.183 147.816 166.503 148.552 166.519 149.464V157H163.831V150.424C163.815 149.912 163.671 149.504 163.399 149.2C163.127 148.88 162.695 148.712 162.103 148.696C161.559 148.696 161.071 148.864 160.639 149.2C160.207 149.52 159.863 149.968 159.607 150.544C159.367 151.104 159.247 151.752 159.247 152.488V157H156.559V146.848H158.983Z" fill="black"/>
<path d="M221.5 111.5C221.5 172.806 172.025 222.5 111 222.5C49.9747 222.5 0.5 172.806 0.5 111.5C0.5 50.1943 49.9747 0.5 111 0.5C172.025 0.5 221.5 50.1943 221.5 111.5Z" stroke="black"/>
<path d="M142.459 85.8404V93.5091H158.073V85.8404H142.459ZM134.651 111.185C138.399 113.908 143.278 117.512 147.143 120.35C148.704 118.317 150.266 116.247 151.827 114.215C147.963 111.377 143.083 107.773 139.336 105.012C137.774 107.083 136.213 109.153 134.651 111.185ZM151.827 65.135C150.266 63.1028 148.704 61.0322 147.143 59C143.278 61.8374 138.399 65.4417 134.651 68.2024C136.213 70.2346 137.774 72.3052 139.336 74.3374C143.083 71.5767 147.963 68.0107 151.827 65.135ZM87.8073 78.1717C83.5133 78.1717 80 81.6227 80 85.8404V93.5091C80 97.7269 83.5133 101.178 87.8073 101.178H91.711V116.515H99.5183V101.178H103.422L122.94 112.681V66.6687L103.422 78.1717H87.8073ZM132.699 89.6748C132.699 84.5751 130.435 79.9739 126.844 76.8297V102.482C130.435 99.3757 132.699 94.7745 132.699 89.6748Z" fill="black"/>
</svg>

