<svg width="224" height="223" viewBox="0 0 224 223" fill="none" xmlns="http://www.w3.org/2000/svg">
<path d="M60.3209 152.632C60.0649 152.808 59.6809 153.024 59.1689 153.28C58.6729 153.536 58.0729 153.76 57.3689 153.952C56.6809 154.128 55.9129 154.208 55.0649 154.192C53.7049 154.176 52.4809 153.936 51.3929 153.472C50.3049 152.992 49.3849 152.352 48.6329 151.552C47.8809 150.736 47.2969 149.808 46.8809 148.768C46.4809 147.712 46.2809 146.592 46.2809 145.408C46.2809 144.08 46.4889 142.864 46.9049 141.76C47.3209 140.656 47.9129 139.704 48.6809 138.904C49.4489 138.088 50.3609 137.456 51.4169 137.008C52.4729 136.56 53.6249 136.336 54.8729 136.336C55.9769 136.336 56.9609 136.488 57.8249 136.792C58.7049 137.08 59.4409 137.408 60.0329 137.776L58.9289 140.392C58.4809 140.088 57.9209 139.784 57.2489 139.48C56.5769 139.176 55.8169 139.024 54.9689 139.024C54.2009 139.024 53.4649 139.184 52.7609 139.504C52.0569 139.808 51.4409 140.248 50.9129 140.824C50.3849 141.384 49.9609 142.04 49.6409 142.792C49.3369 143.544 49.1849 144.36 49.1849 145.24C49.1849 146.152 49.3209 146.992 49.5929 147.76C49.8809 148.528 50.2809 149.192 50.7929 149.752C51.3209 150.296 51.9449 150.728 52.6649 151.048C53.4009 151.352 54.2249 151.504 55.1369 151.504C56.0329 151.504 56.8169 151.368 57.4889 151.096C58.1769 150.808 58.7289 150.488 59.1449 150.136L60.3209 152.632ZM62.6564 148.816C62.6564 147.792 62.8964 146.872 63.3764 146.056C63.8724 145.224 64.5524 144.576 65.4164 144.112C66.2804 143.632 67.2644 143.392 68.3684 143.392C69.5044 143.392 70.4884 143.632 71.3204 144.112C72.1684 144.576 72.8164 145.224 73.2644 146.056C73.7284 146.872 73.9604 147.792 73.9604 148.816C73.9604 149.84 73.7284 150.768 73.2644 151.6C72.8164 152.416 72.1684 153.064 71.3204 153.544C70.4724 154.024 69.4804 154.264 68.3444 154.264C67.2404 154.264 66.2564 154.048 65.3924 153.616C64.5444 153.168 63.8724 152.536 63.3764 151.72C62.8964 150.904 62.6564 149.936 62.6564 148.816ZM65.3684 148.84C65.3684 149.432 65.4964 149.976 65.7524 150.472C66.0084 150.952 66.3604 151.336 66.8084 151.624C67.2564 151.912 67.7524 152.056 68.2964 152.056C68.8884 152.056 69.4004 151.912 69.8324 151.624C70.2804 151.336 70.6244 150.952 70.8644 150.472C71.1204 149.976 71.2484 149.432 71.2484 148.84C71.2484 148.232 71.1204 147.688 70.8644 147.208C70.6244 146.712 70.2804 146.32 69.8324 146.032C69.4004 145.744 68.8884 145.6 68.2964 145.6C67.7364 145.6 67.2324 145.752 66.7844 146.056C66.3524 146.344 66.0084 146.728 65.7524 147.208C65.4964 147.688 65.3684 148.232 65.3684 148.84ZM79.2329 143.848L79.4489 145.912L79.3769 145.744C79.7609 145.008 80.2809 144.432 80.9369 144.016C81.6089 143.6 82.3849 143.392 83.2649 143.392C83.8249 143.392 84.3209 143.48 84.7529 143.656C85.1849 143.832 85.5449 144.08 85.8329 144.4C86.1369 144.72 86.3289 145.12 86.4089 145.6L86.2889 145.648C86.7049 144.96 87.2409 144.416 87.8969 144.016C88.5529 143.6 89.2489 143.392 89.9849 143.392C90.9769 143.392 91.7689 143.68 92.3609 144.256C92.9529 144.816 93.2569 145.544 93.2729 146.44V154H90.6089V147.472C90.5929 146.992 90.4889 146.592 90.2969 146.272C90.1049 145.936 89.7449 145.752 89.2169 145.72C88.6409 145.72 88.1369 145.904 87.7049 146.272C87.2889 146.624 86.9689 147.088 86.7449 147.664C86.5209 148.224 86.4009 148.816 86.3849 149.44V154H83.6969V147.472C83.6809 146.992 83.5689 146.592 83.3609 146.272C83.1529 145.936 82.7849 145.752 82.2569 145.72C81.6969 145.72 81.2089 145.904 80.7929 146.272C80.3769 146.624 80.0569 147.088 79.8329 147.664C79.6089 148.224 79.4969 148.816 79.4969 149.44V154H76.8089V143.848H79.2329ZM99.3892 143.848L99.6052 145.912L99.5332 145.744C99.9172 145.008 100.437 144.432 101.093 144.016C101.765 143.6 102.541 143.392 103.421 143.392C103.981 143.392 104.477 143.48 104.909 143.656C105.341 143.832 105.701 144.08 105.989 144.4C106.293 144.72 106.485 145.12 106.565 145.6L106.445 145.648C106.861 144.96 107.397 144.416 108.053 144.016C108.709 143.6 109.405 143.392 110.141 143.392C111.133 143.392 111.925 143.68 112.517 144.256C113.109 144.816 113.413 145.544 113.429 146.44V154H110.765V147.472C110.749 146.992 110.645 146.592 110.453 146.272C110.261 145.936 109.901 145.752 109.373 145.72C108.797 145.72 108.293 145.904 107.861 146.272C107.445 146.624 107.125 147.088 106.901 147.664C106.677 148.224 106.557 148.816 106.541 149.44V154H103.853V147.472C103.837 146.992 103.725 146.592 103.517 146.272C103.309 145.936 102.941 145.752 102.413 145.72C101.853 145.72 101.365 145.904 100.949 146.272C100.533 146.624 100.213 147.088 99.9892 147.664C99.7652 148.224 99.6532 148.816 99.6532 149.44V154H96.9652V143.848H99.3892ZM120.385 154.432C119.457 154.432 118.689 154.152 118.081 153.592C117.473 153.016 117.153 152.28 117.121 151.384V143.848H119.809V150.424C119.841 150.92 119.985 151.328 120.241 151.648C120.497 151.968 120.905 152.128 121.465 152.128C121.993 152.128 122.457 151.968 122.857 151.648C123.273 151.312 123.601 150.856 123.841 150.28C124.081 149.704 124.201 149.056 124.201 148.336V143.848H126.889V154H124.465L124.249 151.768L124.321 152.104C124.113 152.552 123.817 152.952 123.433 153.304C123.049 153.656 122.593 153.928 122.065 154.12C121.553 154.328 120.993 154.432 120.385 154.432ZM132.999 143.848L133.215 146.032L133.143 145.744C133.479 145.04 133.999 144.48 134.703 144.064C135.407 143.632 136.239 143.416 137.199 143.416C138.159 143.416 138.951 143.696 139.575 144.256C140.199 144.816 140.519 145.552 140.535 146.464V154H137.847V147.424C137.831 146.912 137.687 146.504 137.415 146.2C137.143 145.88 136.711 145.712 136.119 145.696C135.575 145.696 135.087 145.864 134.655 146.2C134.223 146.52 133.879 146.968 133.623 147.544C133.383 148.104 133.263 148.752 133.263 149.488V154H130.575V143.848H132.999ZM144.239 143.848H146.927V154H144.239V143.848ZM144.119 140.2C144.119 139.784 144.279 139.44 144.599 139.168C144.935 138.896 145.295 138.76 145.679 138.76C146.063 138.76 146.407 138.896 146.711 139.168C147.015 139.44 147.167 139.784 147.167 140.2C147.167 140.616 147.015 140.96 146.711 141.232C146.407 141.488 146.063 141.616 145.679 141.616C145.295 141.616 144.935 141.48 144.599 141.208C144.279 140.936 144.119 140.6 144.119 140.2ZM151.598 139.384H154.286V143.848H156.926V145.96H154.286V154H151.598V145.96H149.846V143.848H151.598V139.384ZM159.567 143.848H162.255V154H159.567V143.848ZM159.447 140.2C159.447 139.784 159.607 139.44 159.927 139.168C160.263 138.896 160.623 138.76 161.007 138.76C161.391 138.76 161.735 138.896 162.039 139.168C162.343 139.44 162.495 139.784 162.495 140.2C162.495 140.616 162.343 140.96 162.039 141.232C161.735 141.488 161.391 141.616 161.007 141.616C160.623 141.616 160.263 141.48 159.927 141.208C159.607 140.936 159.447 140.6 159.447 140.2ZM170.79 154.264C169.59 154.264 168.566 154.032 167.718 153.568C166.87 153.104 166.222 152.464 165.774 151.648C165.326 150.832 165.102 149.896 165.102 148.84C165.102 147.832 165.358 146.92 165.87 146.104C166.382 145.272 167.07 144.616 167.934 144.136C168.814 143.64 169.782 143.392 170.838 143.392C172.23 143.392 173.374 143.8 174.27 144.616C175.182 145.416 175.79 146.552 176.094 148.024L167.91 150.784L167.286 149.272L173.694 146.992L173.118 147.304C172.958 146.824 172.678 146.408 172.278 146.056C171.878 145.688 171.326 145.504 170.622 145.504C170.062 145.504 169.566 145.64 169.134 145.912C168.702 146.184 168.358 146.56 168.102 147.04C167.862 147.504 167.742 148.056 167.742 148.696C167.742 149.368 167.878 149.952 168.15 150.448C168.422 150.928 168.79 151.304 169.254 151.576C169.718 151.832 170.246 151.96 170.838 151.96C171.254 151.96 171.646 151.888 172.014 151.744C172.398 151.6 172.766 151.408 173.118 151.168L174.342 153.16C173.814 153.496 173.23 153.768 172.59 153.976C171.966 154.168 171.366 154.264 170.79 154.264ZM181.787 154.216C181.019 154.216 180.283 154.08 179.579 153.808C178.891 153.536 178.315 153.136 177.851 152.608L178.979 151.096C179.427 151.528 179.867 151.848 180.299 152.056C180.747 152.248 181.171 152.344 181.571 152.344C181.875 152.344 182.147 152.312 182.387 152.248C182.643 152.168 182.843 152.048 182.987 151.888C183.147 151.728 183.227 151.512 183.227 151.24C183.227 150.92 183.115 150.672 182.891 150.496C182.667 150.304 182.379 150.152 182.027 150.04C181.675 149.912 181.299 149.792 180.899 149.68C180.035 149.392 179.387 148.992 178.955 148.48C178.523 147.952 178.307 147.344 178.307 146.656C178.307 146.128 178.443 145.624 178.715 145.144C178.987 144.648 179.403 144.24 179.963 143.92C180.523 143.6 181.227 143.44 182.075 143.44C182.843 143.44 183.507 143.528 184.067 143.704C184.643 143.88 185.179 144.16 185.675 144.544L184.643 146.176C184.355 145.888 184.011 145.672 183.611 145.528C183.227 145.368 182.875 145.28 182.555 145.264C182.267 145.248 182.011 145.288 181.787 145.384C181.563 145.464 181.379 145.584 181.235 145.744C181.091 145.904 181.019 146.088 181.019 146.296C181.019 146.616 181.131 146.872 181.355 147.064C181.595 147.256 181.899 147.408 182.267 147.52C182.635 147.632 183.003 147.752 183.371 147.88C183.867 148.024 184.299 148.224 184.667 148.48C185.051 148.736 185.355 149.048 185.579 149.416C185.803 149.768 185.915 150.208 185.915 150.736C185.915 151.344 185.763 151.92 185.459 152.464C185.155 152.992 184.699 153.416 184.091 153.736C183.483 154.056 182.715 154.216 181.787 154.216Z" fill="black"/>
<path d="M223.5 111.5C223.5 172.801 173.582 222.5 112 222.5C50.4181 222.5 0.5 172.801 0.5 111.5C0.5 50.1985 50.4181 0.5 112 0.5C173.582 0.5 223.5 50.1985 223.5 111.5Z" stroke="black"/>
<path d="M124.364 83.4286C131.155 83.4286 136.595 77.9729 136.595 71.2143C136.595 64.4557 131.155 59 124.364 59C117.573 59 112.091 64.4557 112.091 71.2143C112.091 77.9729 117.573 83.4286 124.364 83.4286ZM91.6364 83.4286C98.4273 83.4286 103.868 77.9729 103.868 71.2143C103.868 64.4557 98.4273 59 91.6364 59C84.8455 59 79.3636 64.4557 79.3636 71.2143C79.3636 77.9729 84.8455 83.4286 91.6364 83.4286ZM91.6364 91.5714C82.1045 91.5714 63 96.335 63 105.821V116H120.273V105.821C120.273 96.335 101.168 91.5714 91.6364 91.5714ZM124.364 91.5714C123.177 91.5714 121.827 91.6529 120.395 91.775C125.141 95.195 128.455 99.7957 128.455 105.821V116H153V105.821C153 96.335 133.895 91.5714 124.364 91.5714Z" fill="black"/>
</svg>

