<svg width="224" height="223" viewBox="0 0 224 223" fill="none" xmlns="http://www.w3.org/2000/svg">
<path d="M223.5 111.5C223.5 172.801 173.582 222.5 112 222.5C50.4181 222.5 0.5 172.801 0.5 111.5C0.5 50.1985 50.4181 0.5 112 0.5C173.582 0.5 223.5 50.1985 223.5 111.5Z" stroke="black"/>
<path d="M118.25 56H93.25C89.8125 56 87.0313 58.79 87.0313 62.2L87 111.8C87 115.21 89.7812 118 93.2187 118H130.75C134.188 118 137 115.21 137 111.8V74.6L118.25 56ZM124.5 105.6H99.5V99.4H124.5V105.6ZM124.5 93.2H99.5V87H124.5V93.2ZM115.125 77.7V60.65L132.312 77.7H115.125Z" fill="black"/>
<path d="M69.0739 135.528C70.0339 135.528 70.9139 135.656 71.7139 135.912C72.5139 136.152 73.1939 136.512 73.7539 136.992C74.3139 137.472 74.7459 138.064 75.0499 138.768C75.3699 139.456 75.5299 140.248 75.5299 141.144C75.5299 141.832 75.4259 142.52 75.2179 143.208C75.0099 143.896 74.6659 144.52 74.1859 145.08C73.7219 145.624 73.1059 146.072 72.3379 146.424C71.5699 146.76 70.6179 146.928 69.4819 146.928H66.9619V153H64.1539V135.528H69.0739ZM69.4579 144.24C70.0819 144.24 70.6019 144.144 71.0179 143.952C71.4339 143.744 71.7539 143.488 71.9779 143.184C72.2179 142.88 72.3859 142.56 72.4819 142.224C72.5939 141.872 72.6499 141.544 72.6499 141.24C72.6499 140.952 72.6019 140.64 72.5059 140.304C72.4099 139.952 72.2419 139.624 72.0019 139.32C71.7779 139 71.4659 138.736 71.0659 138.528C70.6659 138.32 70.1619 138.216 69.5539 138.216H66.9619V144.24H69.4579ZM72.4819 145.896L76.9459 153H73.7059L69.1459 145.968L72.4819 145.896ZM84.153 153.264C82.953 153.264 81.929 153.032 81.081 152.568C80.233 152.104 79.585 151.464 79.137 150.648C78.689 149.832 78.465 148.896 78.465 147.84C78.465 146.832 78.721 145.92 79.233 145.104C79.745 144.272 80.433 143.616 81.297 143.136C82.177 142.64 83.145 142.392 84.201 142.392C85.593 142.392 86.737 142.8 87.633 143.616C88.545 144.416 89.153 145.552 89.457 147.024L81.273 149.784L80.649 148.272L87.057 145.992L86.481 146.304C86.321 145.824 86.041 145.408 85.641 145.056C85.241 144.688 84.689 144.504 83.985 144.504C83.425 144.504 82.929 144.64 82.497 144.912C82.065 145.184 81.721 145.56 81.465 146.04C81.225 146.504 81.105 147.056 81.105 147.696C81.105 148.368 81.241 148.952 81.513 149.448C81.785 149.928 82.153 150.304 82.617 150.576C83.081 150.832 83.609 150.96 84.201 150.96C84.617 150.96 85.009 150.888 85.377 150.744C85.761 150.6 86.129 150.408 86.481 150.168L87.705 152.16C87.177 152.496 86.593 152.768 85.953 152.976C85.329 153.168 84.729 153.264 84.153 153.264ZM95.1499 153.216C94.3819 153.216 93.6459 153.08 92.9419 152.808C92.2539 152.536 91.6779 152.136 91.2139 151.608L92.3419 150.096C92.7899 150.528 93.2299 150.848 93.6619 151.056C94.1099 151.248 94.5339 151.344 94.9339 151.344C95.2379 151.344 95.5099 151.312 95.7499 151.248C96.0059 151.168 96.2059 151.048 96.3499 150.888C96.5099 150.728 96.5899 150.512 96.5899 150.24C96.5899 149.92 96.4779 149.672 96.2539 149.496C96.0299 149.304 95.7419 149.152 95.3899 149.04C95.0379 148.912 94.6619 148.792 94.2619 148.68C93.3979 148.392 92.7499 147.992 92.3179 147.48C91.8859 146.952 91.6699 146.344 91.6699 145.656C91.6699 145.128 91.8059 144.624 92.0779 144.144C92.3499 143.648 92.7659 143.24 93.3259 142.92C93.8859 142.6 94.5899 142.44 95.4379 142.44C96.2059 142.44 96.8699 142.528 97.4299 142.704C98.0059 142.88 98.5419 143.16 99.0379 143.544L98.0059 145.176C97.7179 144.888 97.3739 144.672 96.9739 144.528C96.5899 144.368 96.2379 144.28 95.9179 144.264C95.6299 144.248 95.3739 144.288 95.1499 144.384C94.9259 144.464 94.7419 144.584 94.5979 144.744C94.4539 144.904 94.3819 145.088 94.3819 145.296C94.3819 145.616 94.4939 145.872 94.7179 146.064C94.9579 146.256 95.2619 146.408 95.6299 146.52C95.9979 146.632 96.3659 146.752 96.7339 146.88C97.2299 147.024 97.6619 147.224 98.0299 147.48C98.4139 147.736 98.7179 148.048 98.9419 148.416C99.1659 148.768 99.2779 149.208 99.2779 149.736C99.2779 150.344 99.1259 150.92 98.8219 151.464C98.5179 151.992 98.0619 152.416 97.4539 152.736C96.8459 153.056 96.0779 153.216 95.1499 153.216ZM107.098 153.264C105.898 153.264 104.874 153.032 104.026 152.568C103.178 152.104 102.53 151.464 102.082 150.648C101.634 149.832 101.41 148.896 101.41 147.84C101.41 146.832 101.666 145.92 102.178 145.104C102.69 144.272 103.378 143.616 104.242 143.136C105.122 142.64 106.09 142.392 107.146 142.392C108.538 142.392 109.682 142.8 110.578 143.616C111.49 144.416 112.098 145.552 112.402 147.024L104.218 149.784L103.594 148.272L110.002 145.992L109.426 146.304C109.266 145.824 108.986 145.408 108.586 145.056C108.186 144.688 107.634 144.504 106.93 144.504C106.37 144.504 105.874 144.64 105.442 144.912C105.01 145.184 104.666 145.56 104.41 146.04C104.17 146.504 104.05 147.056 104.05 147.696C104.05 148.368 104.186 148.952 104.458 149.448C104.73 149.928 105.098 150.304 105.562 150.576C106.026 150.832 106.554 150.96 107.146 150.96C107.562 150.96 107.954 150.888 108.322 150.744C108.706 150.6 109.074 150.408 109.426 150.168L110.65 152.16C110.122 152.496 109.538 152.768 108.898 152.976C108.274 153.168 107.674 153.264 107.098 153.264ZM119.295 153.264C118.351 153.264 117.487 153.064 116.703 152.664C115.935 152.264 115.327 151.672 114.879 150.888C114.431 150.088 114.207 149.104 114.207 147.936C114.207 146.784 114.439 145.8 114.903 144.984C115.383 144.152 116.007 143.512 116.775 143.064C117.559 142.616 118.407 142.392 119.319 142.392C120.295 142.392 121.079 142.592 121.671 142.992C122.279 143.376 122.751 143.824 123.087 144.336L122.943 144.72L123.207 142.848H125.679V153H122.991V150.528L123.255 151.176C123.207 151.272 123.079 151.432 122.871 151.656C122.679 151.864 122.415 152.096 122.079 152.352C121.743 152.608 121.343 152.824 120.879 153C120.431 153.176 119.903 153.264 119.295 153.264ZM120.039 151.056C120.535 151.056 120.983 150.968 121.383 150.792C121.783 150.616 122.119 150.368 122.391 150.048C122.663 149.728 122.863 149.344 122.991 148.896V146.688C122.863 146.272 122.655 145.912 122.367 145.608C122.079 145.288 121.727 145.04 121.311 144.864C120.911 144.688 120.463 144.6 119.967 144.6C119.407 144.6 118.895 144.736 118.431 145.008C117.983 145.28 117.615 145.656 117.327 146.136C117.055 146.616 116.919 147.168 116.919 147.792C116.919 148.4 117.063 148.952 117.351 149.448C117.639 149.944 118.023 150.336 118.503 150.624C118.983 150.912 119.495 151.056 120.039 151.056ZM131.792 142.848L132.032 145.728L131.936 145.32C132.208 144.712 132.592 144.192 133.088 143.76C133.6 143.328 134.12 142.992 134.648 142.752C135.192 142.512 135.632 142.392 135.968 142.392L135.848 145.08C135.08 145.016 134.408 145.152 133.832 145.488C133.272 145.824 132.832 146.28 132.512 146.856C132.192 147.416 132.032 148.008 132.032 148.632V153H129.368V142.848H131.792ZM146.674 152.064C146.226 152.432 145.674 152.728 145.018 152.952C144.378 153.16 143.73 153.264 143.074 153.264C141.954 153.264 140.97 153.048 140.122 152.616C139.274 152.168 138.61 151.552 138.13 150.768C137.666 149.968 137.434 149.016 137.434 147.912C137.434 146.808 137.682 145.856 138.178 145.056C138.69 144.256 139.354 143.648 140.17 143.232C141.002 142.8 141.874 142.584 142.786 142.584C143.65 142.584 144.41 142.704 145.066 142.944C145.722 143.168 146.282 143.48 146.746 143.88L145.426 145.632C145.17 145.424 144.834 145.232 144.418 145.056C144.018 144.864 143.554 144.768 143.026 144.768C142.498 144.768 142.01 144.904 141.562 145.176C141.114 145.448 140.762 145.824 140.506 146.304C140.25 146.768 140.122 147.304 140.122 147.912C140.122 148.488 140.258 149.016 140.53 149.496C140.802 149.976 141.17 150.36 141.634 150.648C142.114 150.92 142.666 151.056 143.29 151.056C143.706 151.056 144.082 151 144.418 150.888C144.754 150.76 145.058 150.592 145.33 150.384L146.674 152.064ZM149.43 153V134.28H152.07V145.08L152.022 144.672C152.374 144.016 152.894 143.48 153.582 143.064C154.27 142.632 155.094 142.416 156.054 142.416C157.014 142.416 157.806 142.696 158.43 143.256C159.054 143.816 159.374 144.552 159.39 145.464V153H156.702V146.424C156.686 145.912 156.542 145.504 156.27 145.2C155.998 144.88 155.566 144.712 154.974 144.696C154.43 144.696 153.942 144.864 153.51 145.2C153.078 145.536 152.734 145.992 152.478 146.568C152.238 147.128 152.118 147.768 152.118 148.488V153H149.43Z" fill="black"/>
</svg>

