<svg width="223" height="223" viewBox="0 0 223 223" fill="none" xmlns="http://www.w3.org/2000/svg">
<circle cx="111.5" cy="111.5" r="111" stroke="black"/>
<path d="M119.29 79.6257C119.29 86.6213 113.619 92.2923 106.624 92.2923C99.6281 92.2923 93.957 86.6213 93.957 79.6257C93.957 72.63 99.6281 66.959 106.624 66.959C113.619 66.959 119.29 72.63 119.29 79.6257Z" fill="black" stroke="black"/>
<path d="M106.626 99.3756C97.8376 99.3756 80.293 103.786 80.293 112.542V119.126H132.96V112.542C132.96 103.786 115.415 99.3756 106.626 99.3756ZM132.17 67.644L126.64 73.2069C129.405 77.0911 129.405 82.1273 126.64 86.0115L132.17 91.5744C138.819 84.9252 138.819 74.8856 132.17 67.644ZM143.065 56.584L137.7 61.9494C146.818 71.8902 146.818 86.8344 137.7 97.3019L143.065 102.667C155.903 89.8627 155.935 69.9152 143.065 56.584Z" fill="black"/>
<path d="M73.5563 142.08C72.9323 141.76 72.2683 141.488 71.5643 141.264C70.8603 141.024 70.1883 140.904 69.5483 140.904C68.6843 140.904 67.9963 141.096 67.4843 141.48C66.9883 141.864 66.7403 142.392 66.7403 143.064C66.7403 143.544 66.9083 143.968 67.2443 144.336C67.5963 144.688 68.0443 145 68.5883 145.272C69.1483 145.528 69.7323 145.776 70.3403 146.016C70.8683 146.208 71.3883 146.44 71.9003 146.712C72.4283 146.968 72.9003 147.288 73.3163 147.672C73.7323 148.056 74.0603 148.536 74.3003 149.112C74.5403 149.672 74.6603 150.368 74.6603 151.2C74.6603 152.112 74.4283 152.952 73.9643 153.72C73.5163 154.472 72.8603 155.072 71.9963 155.52C71.1323 155.968 70.0843 156.192 68.8523 156.192C68.1163 156.192 67.3963 156.112 66.6923 155.952C66.0043 155.792 65.3483 155.576 64.7243 155.304C64.1003 155.016 63.5243 154.696 62.9963 154.344L64.2443 152.16C64.6283 152.448 65.0683 152.712 65.5643 152.952C66.0603 153.192 66.5723 153.384 67.1003 153.528C67.6283 153.672 68.1243 153.744 68.5883 153.744C69.0843 153.744 69.5723 153.664 70.0523 153.504C70.5483 153.328 70.9563 153.056 71.2763 152.688C71.6123 152.32 71.7803 151.832 71.7803 151.224C71.7803 150.728 71.6363 150.304 71.3483 149.952C71.0763 149.6 70.7083 149.296 70.2443 149.04C69.7803 148.768 69.2763 148.528 68.7323 148.32C68.1883 148.112 67.6363 147.88 67.0763 147.624C66.5163 147.368 65.9883 147.056 65.4923 146.688C65.0123 146.304 64.6203 145.84 64.3163 145.296C64.0123 144.752 63.8603 144.08 63.8603 143.28C63.8603 142.32 64.0843 141.488 64.5323 140.784C64.9803 140.08 65.5963 139.52 66.3803 139.104C67.1803 138.688 68.1003 138.464 69.1403 138.432C70.3723 138.432 71.4203 138.584 72.2843 138.888C73.1643 139.176 73.9403 139.528 74.6123 139.944L73.5563 142.08ZM83.973 156.264C83.269 156.264 82.589 156.112 81.933 155.808C81.277 155.504 80.749 155.088 80.349 154.56L80.469 153.744V160.872H77.805V145.656H80.133L80.493 148.008L80.253 147.288C80.749 146.744 81.349 146.296 82.053 145.944C82.773 145.576 83.581 145.392 84.477 145.392C85.437 145.392 86.293 145.616 87.045 146.064C87.797 146.512 88.389 147.152 88.821 147.984C89.253 148.8 89.469 149.768 89.469 150.888C89.469 152.008 89.229 152.968 88.749 153.768C88.285 154.568 87.637 155.184 86.805 155.616C85.973 156.048 85.029 156.264 83.973 156.264ZM83.445 154.128C84.037 154.128 84.581 153.992 85.077 153.72C85.589 153.448 85.997 153.072 86.301 152.592C86.605 152.096 86.757 151.544 86.757 150.936C86.757 150.296 86.613 149.736 86.325 149.256C86.053 148.76 85.677 148.376 85.197 148.104C84.733 147.816 84.213 147.672 83.637 147.672C83.109 147.672 82.637 147.76 82.221 147.936C81.805 148.112 81.453 148.368 81.165 148.704C80.877 149.024 80.653 149.408 80.493 149.856V151.896C80.605 152.328 80.797 152.72 81.069 153.072C81.341 153.408 81.685 153.672 82.101 153.864C82.517 154.04 82.965 154.128 83.445 154.128ZM97.1843 156.264C95.9843 156.264 94.9603 156.032 94.1123 155.568C93.2643 155.104 92.6163 154.464 92.1683 153.648C91.7203 152.832 91.4963 151.896 91.4963 150.84C91.4963 149.832 91.7523 148.92 92.2643 148.104C92.7763 147.272 93.4643 146.616 94.3283 146.136C95.2083 145.64 96.1763 145.392 97.2323 145.392C98.6243 145.392 99.7683 145.8 100.664 146.616C101.576 147.416 102.184 148.552 102.488 150.024L94.3043 152.784L93.6803 151.272L100.088 148.992L99.5123 149.304C99.3523 148.824 99.0723 148.408 98.6723 148.056C98.2723 147.688 97.7203 147.504 97.0163 147.504C96.4563 147.504 95.9603 147.64 95.5283 147.912C95.0963 148.184 94.7523 148.56 94.4963 149.04C94.2563 149.504 94.1363 150.056 94.1363 150.696C94.1363 151.368 94.2723 151.952 94.5443 152.448C94.8163 152.928 95.1843 153.304 95.6483 153.576C96.1123 153.832 96.6403 153.96 97.2323 153.96C97.6483 153.96 98.0403 153.888 98.4083 153.744C98.7923 153.6 99.1603 153.408 99.5123 153.168L100.736 155.16C100.208 155.496 99.6243 155.768 98.9843 155.976C98.3603 156.168 97.7603 156.264 97.1843 156.264ZM109.381 156.264C108.437 156.264 107.573 156.064 106.789 155.664C106.021 155.264 105.413 154.672 104.965 153.888C104.517 153.088 104.293 152.104 104.293 150.936C104.293 149.784 104.525 148.8 104.989 147.984C105.469 147.152 106.093 146.512 106.861 146.064C107.645 145.616 108.493 145.392 109.405 145.392C110.381 145.392 111.165 145.592 111.757 145.992C112.365 146.376 112.837 146.824 113.173 147.336L113.029 147.72L113.293 145.848H115.765V156H113.077V153.528L113.341 154.176C113.293 154.272 113.165 154.432 112.957 154.656C112.765 154.864 112.501 155.096 112.165 155.352C111.829 155.608 111.429 155.824 110.965 156C110.517 156.176 109.989 156.264 109.381 156.264ZM110.125 154.056C110.621 154.056 111.069 153.968 111.469 153.792C111.869 153.616 112.205 153.368 112.477 153.048C112.749 152.728 112.949 152.344 113.077 151.896V149.688C112.949 149.272 112.741 148.912 112.453 148.608C112.165 148.288 111.813 148.04 111.397 147.864C110.997 147.688 110.549 147.6 110.053 147.6C109.493 147.6 108.981 147.736 108.517 148.008C108.069 148.28 107.701 148.656 107.413 149.136C107.141 149.616 107.005 150.168 107.005 150.792C107.005 151.4 107.149 151.952 107.437 152.448C107.725 152.944 108.109 153.336 108.589 153.624C109.069 153.912 109.581 154.056 110.125 154.056ZM119.453 156V137.28H122.141V156H119.453ZM124.661 149.184L129.293 156H126.149L122.885 150.72L124.661 149.184ZM121.325 152.952L121.061 150.384L127.205 145.608L128.861 147.048L121.325 152.952ZM142.611 149.712C142.611 150.4 142.787 151.032 143.139 151.608C143.507 152.184 143.987 152.64 144.579 152.976C145.171 153.312 145.835 153.48 146.571 153.48C147.339 153.48 148.027 153.312 148.635 152.976C149.243 152.64 149.723 152.184 150.075 151.608C150.427 151.032 150.603 150.4 150.603 149.712V138.528H153.363V149.784C153.363 151.048 153.059 152.168 152.451 153.144C151.843 154.104 151.027 154.856 150.003 155.4C148.979 155.928 147.835 156.192 146.571 156.192C145.323 156.192 144.187 155.928 143.163 155.4C142.139 154.856 141.323 154.104 140.715 153.144C140.123 152.168 139.827 151.048 139.827 149.784V138.528H142.611V149.712ZM163.496 156.264C162.792 156.264 162.112 156.112 161.456 155.808C160.8 155.504 160.272 155.088 159.872 154.56L159.992 153.744V160.872H157.328V145.656H159.656L160.016 148.008L159.776 147.288C160.272 146.744 160.872 146.296 161.576 145.944C162.296 145.576 163.104 145.392 164 145.392C164.96 145.392 165.816 145.616 166.568 146.064C167.32 146.512 167.912 147.152 168.344 147.984C168.776 148.8 168.992 149.768 168.992 150.888C168.992 152.008 168.752 152.968 168.272 153.768C167.808 154.568 167.16 155.184 166.328 155.616C165.496 156.048 164.552 156.264 163.496 156.264ZM162.968 154.128C163.56 154.128 164.104 153.992 164.6 153.72C165.112 153.448 165.52 153.072 165.824 152.592C166.128 152.096 166.28 151.544 166.28 150.936C166.28 150.296 166.136 149.736 165.848 149.256C165.576 148.76 165.2 148.376 164.72 148.104C164.256 147.816 163.736 147.672 163.16 147.672C162.632 147.672 162.16 147.76 161.744 147.936C161.328 148.112 160.976 148.368 160.688 148.704C160.4 149.024 160.176 149.408 160.016 149.856V151.896C160.128 152.328 160.32 152.72 160.592 153.072C160.864 153.408 161.208 153.672 161.624 153.864C162.04 154.04 162.488 154.128 162.968 154.128Z" fill="black"/>
</svg>

